<svg width="29" height="29" viewBox="0 0 29 29" fill="none" xmlns="http://www.w3.org/2000/svg">
<rect width="29" height="29" fill="white"/>
<path d="M4.19772 14.1346L4.19773 14.1346L4.19872 14.1326C4.26161 14.0068 5.1386 12.2904 6.85576 10.6086C8.57167 8.92806 11.1103 7.29688 14.5052 7.29688C17.9001 7.29688 20.4387 8.92806 22.1547 10.6086C23.8673 12.286 24.7442 13.9978 24.8112 14.1316C24.8114 14.1319 24.8115 14.1323 24.8117 14.1326L24.9913 14.4999L24.8117 14.8673C24.8115 14.8676 24.8114 14.8679 24.8112 14.8683C24.7442 15.002 23.8673 16.7138 22.1547 18.3912C20.4387 20.0718 17.9001 21.703 14.5052 21.703C11.1103 21.703 8.57166 20.0718 6.85436 18.3912C5.19654 16.7687 4.31916 15.1142 4.19511 14.8803C4.19192 14.8743 4.18923 14.8692 4.18703 14.8651L4.00972 14.5024L4.19772 14.1346ZM5.9379 14.3631L5.84845 14.4999L5.9379 14.6367C6.84095 16.0179 9.69661 20.0735 14.5052 20.0735C19.3138 20.0735 22.1695 16.0179 23.0725 14.6367L23.162 14.4999L23.0725 14.3631C22.1695 12.982 19.3138 8.92632 14.5052 8.92632C9.69661 8.92632 6.84095 12.982 5.9379 14.3631Z" fill="#717384" stroke="white" stroke-width="0.5"/>
<path d="M12.278 11.1666C12.9373 10.7261 13.7123 10.491 14.5052 10.491C15.5685 10.491 16.5881 10.9133 17.3399 11.6651C18.0918 12.417 18.5141 13.4366 18.5141 14.4999C18.5141 15.2927 18.279 16.0678 17.8385 16.7271C17.398 17.3863 16.7719 17.9002 16.0394 18.2036C15.3068 18.507 14.5008 18.5864 13.7231 18.4317C12.9455 18.277 12.2312 17.8952 11.6705 17.3346C11.1099 16.7739 10.7281 16.0596 10.5734 15.2819C10.4187 14.5043 10.4981 13.6982 10.8015 12.9657C11.1049 12.2332 11.6188 11.6071 12.278 11.1666ZM13.1833 16.4783C13.5746 16.7397 14.0346 16.8793 14.5052 16.8793C15.1363 16.8793 15.7415 16.6286 16.1877 16.1824C16.634 15.7361 16.8847 15.1309 16.8847 14.4999C16.8847 14.0292 16.7451 13.5692 16.4837 13.1779C16.2222 12.7866 15.8506 12.4816 15.4158 12.3015C14.981 12.1214 14.5026 12.0743 14.041 12.1661C13.5795 12.2579 13.1555 12.4846 12.8227 12.8173C12.4899 13.1501 12.2633 13.5741 12.1715 14.0356C12.0797 14.4972 12.1268 14.9756 12.3069 15.4104C12.487 15.8452 12.792 16.2168 13.1833 16.4783Z" fill="#717384" stroke="white" stroke-width="0.5"/>
<rect width="31.8585" height="3.2475" transform="matrix(0.858603 0.512641 -0.487464 0.873143 1.60938 4.91113)" fill="white"/>
<rect x="1.10474" y="6.104" width="31.5832" height="1.14356" rx="0.395778" transform="matrix(0.866024 0.499997 -0.500003 0.866027 3.20003 0.265407)" fill="#717384"/>
</svg>
