<svg width="190" height="25" fill="none" xmlns="http://www.w3.org/2000/svg"><path d="M9.566 25c-1.837 0-3.62-.232-5.35-.694-1.73-.463-3.135-1.08-4.216-1.852l2.108-4.828c1.016.683 2.194 1.234 3.534 1.653 1.34.419 2.66.628 3.957.628 2.464 0 3.696-.628 3.696-1.884 0-.662-.356-1.147-1.07-1.456-.692-.33-1.816-.672-3.372-1.025-1.708-.374-3.135-.771-4.28-1.19a7.347 7.347 0 0 1-2.952-2.084C.8 11.32.39 10.043.39 8.433c0-1.411.378-2.679 1.135-3.803.757-1.147 1.88-2.05 3.373-2.712C6.41 1.257 8.258.926 10.442.926c1.491 0 2.961.176 4.41.529 1.448.33 2.724.827 3.826 1.488L16.7 7.804c-2.162-1.19-4.259-1.785-6.29-1.785-1.276 0-2.206.198-2.79.595-.583.375-.875.87-.875 1.488 0 .617.346 1.08 1.038 1.389.691.308 1.805.628 3.34.959 1.73.375 3.156.782 4.28 1.223a7.063 7.063 0 0 1 2.951 2.05c.843.926 1.265 2.194 1.265 3.803 0 1.39-.379 2.646-1.135 3.77-.757 1.125-1.892 2.029-3.405 2.712-1.514.661-3.351.992-5.513.992zM40.776 6.614v17.923h-5.869v-1.918a6.313 6.313 0 0 1-2.335 1.654 7.489 7.489 0 0 1-2.886.562c-2.27 0-4.086-.684-5.448-2.05-1.34-1.367-2.01-3.418-2.01-6.151V6.614h6.161v8.994c0 1.345.249 2.326.746 2.944.497.617 1.221.925 2.173.925.972 0 1.761-.341 2.367-1.025.627-.705.94-1.774.94-3.207V6.614h6.161zM63.423 0v24.537h-5.87v-1.786c-1.145 1.39-2.864 2.084-5.155 2.084-1.6 0-3.06-.375-4.378-1.125-1.319-.771-2.367-1.863-3.145-3.274-.757-1.41-1.135-3.042-1.135-4.894 0-1.851.378-3.472 1.135-4.86C45.653 9.27 46.7 8.19 48.02 7.44s2.778-1.124 4.378-1.124c2.097 0 3.718.617 4.864 1.852V0h6.161zm-9.728 19.841c1.06 0 1.935-.375 2.627-1.124.691-.772 1.037-1.83 1.037-3.175 0-1.322-.346-2.359-1.037-3.108-.67-.75-1.546-1.124-2.627-1.124-1.08 0-1.967.374-2.66 1.124-.69.75-1.037 1.786-1.037 3.108 0 1.345.346 2.403 1.038 3.175.692.75 1.578 1.124 2.659 1.124zM76.208 24.835c-1.881 0-3.578-.397-5.091-1.19-1.514-.794-2.703-1.897-3.568-3.308-.843-1.41-1.264-3.009-1.264-4.795 0-1.763.421-3.35 1.264-4.762a8.813 8.813 0 0 1 3.535-3.273c1.513-.794 3.221-1.19 5.124-1.19 1.902 0 3.61.396 5.123 1.19 1.513.771 2.692 1.862 3.535 3.273.843 1.39 1.264 2.977 1.264 4.762 0 1.786-.421 3.384-1.264 4.795s-2.022 2.514-3.535 3.307c-1.513.794-3.221 1.19-5.123 1.19zm0-4.994c1.08 0 1.967-.375 2.659-1.124.691-.772 1.037-1.83 1.037-3.175 0-1.322-.346-2.359-1.037-3.108-.692-.75-1.579-1.124-2.66-1.124-1.08 0-1.967.374-2.658 1.124-.692.75-1.038 1.786-1.038 3.108 0 1.345.346 2.403 1.038 3.175.691.75 1.578 1.124 2.659 1.124zM96.962 18.254l-1.816 1.885v4.398h-6.161V0h6.16v12.864l6.292-6.25h7.296l-7.296 7.672 7.912 10.251h-7.458l-4.93-6.283zM129.382 6.614v17.923h-5.869v-1.918a6.318 6.318 0 0 1-2.335 1.654 7.49 7.49 0 0 1-2.886.562c-2.27 0-4.086-.684-5.448-2.05-1.34-1.367-2.01-3.418-2.01-6.151V6.614h6.161v8.994c0 1.345.248 2.326.746 2.944.497.617 1.221.925 2.172.925.973 0 1.762-.341 2.368-1.025.627-.705.94-1.774.94-3.207V6.614h6.161zM144.019 1.389c2.054 0 3.838.353 5.351 1.058 1.513.684 2.681 1.676 3.502 2.976.822 1.279 1.232 2.79 1.232 4.53 0 1.742-.41 3.253-1.232 4.531-.821 1.279-1.989 2.27-3.502 2.976-1.513.684-3.297 1.025-5.351 1.025h-3.956v6.052h-6.42V1.389h10.376zm-.389 11.938c1.319 0 2.314-.287 2.984-.86.67-.595 1.005-1.433 1.005-2.513 0-1.08-.335-1.918-1.005-2.514-.67-.595-1.665-.892-2.984-.892h-3.567v6.779h3.567zM162.971 8.763a5.634 5.634 0 0 1 2.432-1.819c1.016-.418 2.173-.628 3.47-.628v5.655c-.562-.066-1.027-.1-1.395-.1-1.318 0-2.356.364-3.113 1.092-.735.728-1.102 1.84-1.102 3.34v8.234h-6.162V6.614h5.87v2.15zM180.077 24.835c-1.881 0-3.578-.397-5.091-1.19-1.513-.794-2.702-1.897-3.567-3.308-.843-1.41-1.265-3.009-1.265-4.795 0-1.763.422-3.35 1.265-4.762a8.813 8.813 0 0 1 3.535-3.273c1.513-.794 3.221-1.19 5.123-1.19 1.903 0 3.61.396 5.124 1.19 1.513.771 2.691 1.862 3.534 3.273.843 1.39 1.265 2.977 1.265 4.762 0 1.786-.422 3.384-1.265 4.795s-2.021 2.514-3.534 3.307c-1.514.794-3.221 1.19-5.124 1.19zm0-4.994c1.081 0 1.967-.375 2.659-1.124.692-.772 1.038-1.83 1.038-3.175 0-1.322-.346-2.359-1.038-3.108-.692-.75-1.578-1.124-2.659-1.124-1.081 0-1.967.374-2.659 1.124-.692.75-1.038 1.786-1.038 3.108 0 1.345.346 2.403 1.038 3.175.692.75 1.578 1.124 2.659 1.124z" fill="#fff"/></svg>