<svg width="31" height="19" fill="none" xmlns="http://www.w3.org/2000/svg"><path d="M11.077 4.654C11.077 2.3 12.877.5 15.231.5s4.154 1.8 4.154 4.154-1.8 4.154-4.154 4.154-4.154-1.8-4.154-4.154zm4.154 6.923c-6.37 0-8.308 4.57-8.308 4.57V18.5h16.615v-2.354s-1.938-4.57-8.307-4.57zM24.23 7.423a3.462 3.462 0 1 0 0-6.923 3.462 3.462 0 0 0 0 6.923zM24.23 10.193c-1.66 0-2.907.415-3.876 1.108 3.184 1.523 4.43 4.153 4.43 4.43v.139h5.677v-1.8c0-.139-1.523-3.877-6.23-3.877z" fill="#fff"/><path d="M24.23 7.423a3.462 3.462 0 1 0 0-6.923 3.462 3.462 0 0 0 0 6.923zM24.23 10.193c-1.66 0-2.907.415-3.876 1.108 3.184 1.523 4.43 4.153 4.43 4.43v.139h5.677v-1.8c0-.139-1.523-3.877-6.23-3.877zM6.23 7.423A3.462 3.462 0 1 0 6.23.5a3.462 3.462 0 0 0 0 6.923zM6.23 10.193c1.662 0 2.908.415 3.878 1.108-3.185 1.523-4.431 4.153-4.431 4.43v.139H0v-1.8c0-.139 1.523-3.877 6.23-3.877z" fill="#fff"/></svg>